<svg width="19" height="21" viewBox="0 0 19 21" fill="none" xmlns="http://www.w3.org/2000/svg">
<path d="M18.6033 14.4989C18.5254 14.4052 18.449 14.3114 18.374 14.2209C17.3428 12.9736 16.7189 12.2208 16.7189 8.68969C16.7189 6.86156 16.2815 5.36156 15.4195 4.23656C14.7839 3.40547 13.9247 2.775 12.7922 2.30906C12.7776 2.30096 12.7646 2.29032 12.7537 2.27766C12.3464 0.913594 11.2317 0 9.97451 0C8.71732 0 7.6031 0.913594 7.19576 2.27625C7.18488 2.28845 7.17205 2.29875 7.15779 2.30672C4.51497 3.39469 3.2306 5.48203 3.2306 8.68828C3.2306 12.2208 2.60763 12.9736 1.57544 14.2195C1.50044 14.31 1.42404 14.4019 1.34622 14.4975C1.14522 14.7399 1.01787 15.0348 0.979246 15.3473C0.940617 15.6598 0.992327 15.9769 1.12825 16.2609C1.41747 16.8703 2.03388 17.2486 2.73747 17.2486H17.2167C17.917 17.2486 18.5292 16.8708 18.8193 16.2642C18.9559 15.9801 19.0081 15.6628 18.9698 15.3499C18.9315 15.037 18.8043 14.7417 18.6033 14.4989ZM9.97451 21C10.6519 20.9995 11.3165 20.8156 11.8978 20.4679C12.4791 20.1202 12.9555 19.6217 13.2764 19.0252C13.2915 18.9966 13.299 18.9646 13.2981 18.9322C13.2971 18.8999 13.2879 18.8684 13.2712 18.8407C13.2545 18.813 13.2309 18.7901 13.2027 18.7742C13.1746 18.7583 13.1428 18.75 13.1104 18.75H6.83951C6.80713 18.7499 6.77527 18.7582 6.74704 18.774C6.71881 18.7899 6.69516 18.8128 6.67841 18.8405C6.66165 18.8682 6.65235 18.8997 6.65142 18.9321C6.65049 18.9645 6.65796 18.9965 6.6731 19.0252C6.99397 19.6216 7.47028 20.1201 8.05151 20.4678C8.63274 20.8155 9.29722 20.9994 9.97451 21Z" fill="#08B0F9"/>
</svg>
