<svg width="26" height="37" viewBox="0 0 26 37" fill="none" xmlns="http://www.w3.org/2000/svg">
<path d="M6.50689 33.1637C6.47173 33.1145 3.29009 28.2981 5.39595 21.4672C5.82837 20.061 6.27837 18.82 6.71431 17.6176C7.74087 14.777 8.64791 12.2809 8.64791 9.4016C8.64791 7.20082 8.11705 4.77504 6.70728 1.81137C6.21861 0.788322 4.99869 0.352385 3.97564 0.841056C2.95611 1.32973 2.52369 2.54965 3.00884 3.5727C5.52603 8.86371 4.58033 11.4758 2.8647 16.2219C2.4358 17.4102 1.94712 18.7602 1.48306 20.2579C-1.19936 28.9485 2.93853 35.1957 3.11431 35.4629C3.75064 36.4016 5.0233 36.6442 5.96197 36.0114C6.89712 35.375 7.14322 34.0989 6.50689 33.1637ZM19.7749 3.5727C22.292 8.86371 21.3428 11.4758 19.6307 16.2219C19.2018 17.4102 18.7131 18.7602 18.2491 20.2579C15.5667 28.9485 19.7045 35.1957 19.8803 35.4629C20.5167 36.4016 21.7893 36.6442 22.728 36.0114C23.6631 35.375 23.9057 34.0989 23.2764 33.1637C23.2448 33.1145 20.0561 28.2981 22.1655 21.4672C22.5979 20.061 23.0479 18.82 23.4838 17.6176C24.5104 14.777 25.4174 12.2809 25.4174 9.4016C25.4174 7.20082 24.8866 4.77504 23.4768 1.81137C22.9881 0.788322 21.7682 0.352385 20.7452 0.841056C19.7221 1.32973 19.2897 2.54965 19.7749 3.5727ZM11.3901 3.5727C13.9073 8.86371 12.9616 11.4758 11.246 16.2219C10.817 17.4102 10.3284 18.7602 9.86431 20.2579C7.18189 28.9485 11.3198 35.1993 11.4956 35.4629C12.1319 36.4016 13.4045 36.6442 14.3432 36.0114C15.2819 35.375 15.521 34.0989 14.8917 33.1637C14.8565 33.1145 11.6713 28.2981 13.7807 21.4672C14.2131 20.061 14.6631 18.82 15.0991 17.6176C16.1256 14.777 17.0327 12.2809 17.0327 9.4016C17.0327 7.20082 16.5018 4.77504 15.092 1.81137C14.6034 0.788322 13.3835 0.352385 12.3604 0.841056C11.3374 1.32973 10.9049 2.54965 11.3901 3.5727Z" fill="#84E8F8"/>
</svg>
