<svg width="107" height="129" viewBox="0 0 107 129" fill="none" xmlns="http://www.w3.org/2000/svg">
<path d="M99.8124 93.5014L82.4597 110.88C87.0232 106.309 89.6053 100.122 89.6469 93.6592C89.6885 87.1958 87.1862 80.9762 82.682 76.3472L82.5708 76.2344L82.4597 76.1216L41.8624 35.4659C37.2746 30.8536 34.7014 24.6068 34.7076 18.0965C34.7138 11.5863 37.2989 5.34442 41.8954 0.740845L99.8124 58.7433C104.415 63.3526 107 69.604 107 76.1224C107 82.6407 104.415 88.8921 99.8124 93.5014Z" fill="#0059FF"/>
<path d="M82.4597 110.88L65.106 128.264C67.3851 125.982 69.1931 123.273 70.4266 120.291C71.6601 117.309 72.295 114.113 72.295 110.885C72.295 107.657 71.6601 104.461 70.4266 101.479C69.1931 98.4974 67.3851 95.788 65.106 93.5059L24.5432 52.8773C22.2641 50.5953 20.4561 47.8861 19.2226 44.9043C17.9892 41.9225 17.3543 38.7265 17.3543 35.499C17.3543 32.2714 17.9892 29.0755 19.2226 26.0937C20.4561 23.1119 22.2641 20.4026 24.5432 18.1207L82.5708 76.2344L82.682 76.3472C87.1862 80.9762 89.6885 87.1958 89.6469 93.6592C89.6053 100.122 87.0232 106.309 82.4597 110.88Z" fill="#08B0F9"/>
<path d="M65.106 128.264L7.18873 70.2572C2.58647 65.6479 0.000976562 59.3965 0.000976562 52.8781C0.000976562 46.3597 2.58647 40.1083 7.18873 35.499L65.1058 93.5015C67.3856 95.7836 69.1941 98.4933 70.428 101.476C71.6619 104.458 72.297 107.655 72.297 110.883C72.297 114.111 71.6619 117.308 70.428 120.29C69.1941 123.272 67.3858 125.982 65.106 128.264Z" fill="#84E8F8"/>
</svg>
