<svg width="53" height="47" viewBox="0 0 53 47" fill="none" xmlns="http://www.w3.org/2000/svg">
<g clip-path="url(#clip0_621_1010)">
<path d="M39.0854 25.2072L34.3699 29.9297C35.61 28.6877 36.3117 27.0064 36.323 25.2501C36.3343 23.4937 35.6543 21.8036 34.4303 20.5456L34.4001 20.515L34.3699 20.4843L23.3468 9.44534L23.3378 9.43635C22.0911 8.18297 21.3919 6.48544 21.3936 4.71632C21.3952 2.94719 22.0977 1.251 23.3468 0L39.0854 15.7619C40.3361 17.0144 41.0387 18.7132 41.0387 20.4845C41.0387 22.2559 40.3361 23.9546 39.0854 25.2072Z" fill="#0059FF"/>
<path d="M34.3699 29.9297L29.654 34.6538C30.2733 34.0336 30.7646 33.2974 31.0998 32.4871C31.435 31.6767 31.6076 30.8082 31.6076 29.9311C31.6076 29.054 31.435 28.1855 31.0998 27.3752C30.7646 26.5649 30.2733 25.8286 29.654 25.2084L18.6313 14.1678C18.0119 13.5477 17.5206 12.8115 17.1854 12.0012C16.8503 11.1909 16.6777 10.3224 16.6777 9.44537C16.6777 8.5683 16.8503 7.69982 17.1854 6.88953C17.5206 6.07924 18.0119 5.34301 18.6313 4.7229L23.3378 9.43515L23.3468 9.44414L34.4001 20.515L34.4303 20.5457C35.6543 21.8036 36.3343 23.4937 36.323 25.2501C36.3117 27.0065 35.61 28.6877 34.3699 29.9297Z" fill="#08B0F9"/>
<path d="M29.6538 34.6537L13.9151 18.8907C12.6645 17.6381 11.9619 15.9393 11.9619 14.168C11.9619 12.3967 12.6645 10.6979 13.9151 9.44531L29.6538 25.2072C30.2733 25.8273 30.7648 26.5637 31.1001 27.3741C31.4354 28.1845 31.608 29.0532 31.608 29.9305C31.608 30.8077 31.4354 31.6764 31.1001 32.4868C30.7648 33.2972 30.2733 34.0336 29.6538 34.6537Z" fill="#84E8F8"/>
</g>
<path d="M3.18775 44.3496C3.49156 44.4122 3.7356 44.559 3.91988 44.7901C4.10416 45.0164 4.1963 45.2764 4.1963 45.5701C4.1963 45.9938 4.0419 46.3308 3.73311 46.5811C3.4293 46.8267 3.00347 46.9494 2.45562 46.9494H0.0126953V41.8798H2.37344C2.90635 41.8798 3.32222 41.9977 3.62105 42.2337C3.92486 42.4696 4.07677 42.7897 4.07677 43.1941C4.07677 43.4926 3.99459 43.7406 3.83023 43.938C3.67086 44.1354 3.4567 44.2726 3.18775 44.3496ZM1.29019 43.9308H2.12691C2.33609 43.9308 2.49546 43.8874 2.60503 43.8008C2.71959 43.7093 2.77686 43.5769 2.77686 43.4036C2.77686 43.2303 2.71959 43.0979 2.60503 43.0064C2.49546 42.9149 2.33609 42.8692 2.12691 42.8692H1.29019V43.9308ZM2.2315 45.9528C2.44566 45.9528 2.61002 45.9071 2.72457 45.8156C2.8441 45.7193 2.90386 45.5821 2.90386 45.404C2.90386 45.2259 2.84161 45.0862 2.7171 44.9851C2.59756 44.884 2.43072 44.8335 2.21656 44.8335H1.29019V45.9528H2.2315Z" fill="#232323"/>
<path d="M7.97782 46.9494L6.21473 44.7107V46.9494H4.93724V41.8798H6.21473V44.1041L7.96288 41.8798H9.4645L7.43246 44.3641L9.5392 46.9494H7.97782Z" fill="#232323"/>
<path d="M15.1436 41.8798V42.8692H13.007V43.938H14.6057V44.8985H13.007V46.9494H11.7295V41.8798H15.1436Z" fill="#232323"/>
<path d="M17.0925 41.8798V46.9494H15.815V41.8798H17.0925Z" fill="#232323"/>
<path d="M20.6928 46.9494L19.6021 45.0357H19.2958V46.9494H18.0183V41.8798H20.1624C20.5758 41.8798 20.9269 41.9496 21.2158 42.0892C21.5096 42.2288 21.7288 42.4214 21.8732 42.667C22.0176 42.9077 22.0898 43.1773 22.0898 43.4758C22.0898 43.8128 21.9902 44.1137 21.791 44.3785C21.5968 44.6433 21.3079 44.8311 20.9244 44.9418L22.1347 46.9494H20.6928ZM19.2958 44.1619H20.0877C20.3218 44.1619 20.4961 44.1065 20.6106 43.9958C20.7302 43.885 20.7899 43.7286 20.7899 43.5263C20.7899 43.3338 20.7302 43.1821 20.6106 43.0714C20.4961 42.9606 20.3218 42.9053 20.0877 42.9053H19.2958V44.1619Z" fill="#232323"/>
<path d="M24.1693 42.8692V43.8947H25.8801V44.8479H24.1693V45.9601H26.1042V46.9494H22.8918V41.8798H26.1042V42.8692H24.1693Z" fill="#232323"/>
<path d="M30.4149 43.483C30.3203 43.3145 30.1833 43.1869 30.004 43.1003C29.8297 43.0088 29.623 42.9631 29.3839 42.9631C28.9706 42.9631 28.6394 43.0954 28.3903 43.3602C28.1413 43.6202 28.0168 43.9693 28.0168 44.4074C28.0168 44.8744 28.1463 45.2403 28.4053 45.5051C28.6692 45.7651 29.0303 45.8951 29.4885 45.8951C29.8023 45.8951 30.0663 45.818 30.2804 45.664C30.4996 45.5099 30.6589 45.2884 30.7586 44.9996H29.1374V44.0896H31.9165V45.2379C31.8219 45.546 31.66 45.8325 31.4309 46.0973C31.2068 46.3621 30.9204 46.5763 30.5718 46.74C30.2232 46.9037 29.8297 46.9855 29.3914 46.9855C28.8734 46.9855 28.4103 46.8772 28.0019 46.6606C27.5984 46.4391 27.2822 46.1334 27.0531 45.7434C26.829 45.3534 26.7169 44.9081 26.7169 44.4074C26.7169 43.9067 26.829 43.4613 27.0531 43.0714C27.2822 42.6766 27.5984 42.3709 28.0019 42.1542C28.4053 41.9328 28.866 41.822 29.3839 41.822C30.0115 41.822 30.5394 41.9689 30.9677 42.2625C31.401 42.5562 31.6874 42.9631 31.8269 43.483H30.4149Z" fill="#232323"/>
<path d="M33.8792 41.8798V44.9129C33.8792 45.2162 33.9564 45.4497 34.1108 45.6134C34.2652 45.7771 34.4918 45.859 34.7906 45.859C35.0895 45.859 35.3186 45.7771 35.4779 45.6134C35.6373 45.4497 35.717 45.2162 35.717 44.9129V41.8798H36.9945V44.9057C36.9945 45.3583 36.8949 45.741 36.6957 46.0539C36.4965 46.3669 36.2275 46.6028 35.8888 46.7617C35.5551 46.9205 35.1816 47 34.7682 47C34.3549 47 33.9838 46.923 33.6551 46.7689C33.3314 46.61 33.0749 46.3741 32.8856 46.0612C32.6964 45.7434 32.6017 45.3583 32.6017 44.9057V41.8798H33.8792Z" fill="#232323"/>
<path d="M41.1563 46.0539H39.199L38.8852 46.9494H37.5479L39.4455 41.8798H40.9247L42.8222 46.9494H41.47L41.1563 46.0539ZM40.8276 45.1007L40.1776 43.2447L39.5351 45.1007H40.8276Z" fill="#232323"/>
<path d="M46.0743 46.9494L44.9836 45.0357H44.6773V46.9494H43.3998V41.8798H45.5439C45.9572 41.8798 46.3084 41.9496 46.5972 42.0892C46.8911 42.2288 47.1102 42.4214 47.2547 42.667C47.3991 42.9077 47.4713 43.1773 47.4713 43.4758C47.4713 43.8128 47.3717 44.1137 47.1725 44.3785C46.9782 44.6433 46.6894 44.8311 46.3059 44.9418L47.5161 46.9494H46.0743ZM44.6773 44.1619H45.4692C45.7032 44.1619 45.8776 44.1065 45.9921 43.9958C46.1116 43.885 46.1714 43.7286 46.1714 43.5263C46.1714 43.3338 46.1116 43.1821 45.9921 43.0714C45.8776 42.9606 45.7032 42.9053 45.4692 42.9053H44.6773V44.1619Z" fill="#232323"/>
<path d="M50.238 41.8798C50.7909 41.8798 51.274 41.9857 51.6874 42.1976C52.1007 42.4094 52.4195 42.7079 52.6436 43.093C52.8727 43.4734 52.9873 43.9139 52.9873 44.4146C52.9873 44.9105 52.8727 45.351 52.6436 45.7362C52.4195 46.1213 52.0983 46.4198 51.6799 46.6317C51.2665 46.8435 50.7859 46.9494 50.238 46.9494H48.2732V41.8798H50.238ZM50.1559 45.8806C50.639 45.8806 51.015 45.753 51.2839 45.4979C51.5529 45.2427 51.6874 44.8816 51.6874 44.4146C51.6874 43.9476 51.5529 43.5841 51.2839 43.3241C51.015 43.0642 50.639 42.9342 50.1559 42.9342H49.5507V45.8806H50.1559Z" fill="#232323"/>
<defs>
<clipPath id="clip0_621_1010">
<rect width="29.0763" height="34.6525" fill="white" transform="translate(11.9619)"/>
</clipPath>
</defs>
</svg>
