<svg width="24" height="30" viewBox="0 0 24 30" fill="none" xmlns="http://www.w3.org/2000/svg">
<path d="M15.75 23.5C16.375 23.5 16.906 23.281 17.343 22.843C17.781 22.406 18 21.875 18 21.25C18 20.625 17.781 20.094 17.343 19.657C16.906 19.219 16.375 19 15.75 19C15.125 19 14.594 19.219 14.157 19.657C13.719 20.094 13.5 20.625 13.5 21.25C13.5 21.875 13.719 22.406 14.157 22.843C14.594 23.281 15.125 23.5 15.75 23.5ZM7.125 22.375C7.425 22.675 7.775 22.825 8.175 22.825C8.575 22.825 8.925 22.675 9.225 22.375L16.875 14.725C17.175 14.425 17.325 14.075 17.325 13.675C17.325 13.275 17.175 12.925 16.875 12.625C16.575 12.325 16.219 12.175 15.807 12.175C15.394 12.175 15.0375 12.325 14.7375 12.625L7.125 20.2375C6.825 20.5375 6.675 20.894 6.675 21.307C6.675 21.719 6.825 22.075 7.125 22.375ZM8.25 16C8.875 16 9.406 15.781 9.843 15.343C10.281 14.906 10.5 14.375 10.5 13.75C10.5 13.125 10.281 12.594 9.843 12.157C9.406 11.719 8.875 11.5 8.25 11.5C7.625 11.5 7.094 11.719 6.657 12.157C6.219 12.594 6 13.125 6 13.75C6 14.375 6.219 14.906 6.657 15.343C7.094 15.781 7.625 16 8.25 16ZM12 29.5C8.825 29.5 6.0315 28.394 3.6195 26.182C1.2065 23.969 0 20.975 0 17.2C0 14.825 0.9 12.25 2.7 9.475C4.5 6.7 7.225 3.7 10.875 0.475C11.025 0.35 11.2 0.25 11.4 0.175C11.6 0.1 11.8 0.0625 12 0.0625C12.2 0.0625 12.4 0.1 12.6 0.175C12.8 0.25 12.975 0.35 13.125 0.475C16.775 3.7 19.5 6.7 21.3 9.475C23.1 12.25 24 14.825 24 17.2C24 20.975 22.7935 23.969 20.3805 26.182C17.9685 28.394 15.175 29.5 12 29.5Z" fill="#84E8F8"/>
</svg>
