<svg width="16" height="31" viewBox="0 0 16 31" fill="none" xmlns="http://www.w3.org/2000/svg">
<path d="M12.5 17V5C12.5 3.80653 12.0259 2.66193 11.182 1.81802C10.3381 0.974106 9.19347 0.5 8 0.5C6.80653 0.5 5.66193 0.974106 4.81802 1.81802C3.97411 2.66193 3.5 3.80653 3.5 5V17C2.24071 17.9445 1.3105 19.2612 0.841148 20.7637C0.371797 22.2663 0.387095 23.8784 0.884875 25.3717C1.38266 26.865 2.33768 28.1639 3.61467 29.0843C4.89166 30.0047 6.42588 30.5 8 30.5C9.57412 30.5 11.1083 30.0047 12.3853 29.0843C13.6623 28.1639 14.6173 26.865 15.1151 25.3717C15.6129 23.8784 15.6282 22.2663 15.1589 20.7637C14.6895 19.2612 13.7593 17.9445 12.5 17ZM8 3.5C8.39782 3.5 8.77936 3.65804 9.06066 3.93934C9.34196 4.22064 9.5 4.60218 9.5 5V15.5H6.5V5C6.5 4.60218 6.65804 4.22064 6.93934 3.93934C7.22064 3.65804 7.60218 3.5 8 3.5Z" fill="#84E8F8"/>
</svg>
