<svg width="29" height="14" viewBox="0 0 29 14" fill="none" xmlns="http://www.w3.org/2000/svg">
<path d="M12.5 9C12.075 9 11.719 8.856 11.432 8.568C11.144 8.281 11 7.925 11 7.5V1.5C11 1.075 11.144 0.7185 11.432 0.4305C11.719 0.1435 12.075 0 12.5 0H17C17.425 0 17.7815 0.1435 18.0695 0.4305C18.3565 0.7185 18.5 1.075 18.5 1.5V7.5C18.5 7.925 18.3565 8.281 18.0695 8.568C17.7815 8.856 17.425 9 17 9H12.5ZM13.25 6.75H16.25V2.25H13.25V6.75ZM2 9C1.575 9 1.219 8.856 0.932 8.568C0.644 8.281 0.5 7.925 0.5 7.5V1.5C0.5 1.075 0.644 0.7185 0.932 0.4305C1.219 0.1435 1.575 0 2 0H6.5C6.925 0 7.2815 0.1435 7.5695 0.4305C7.8565 0.7185 8 1.075 8 1.5V3H5.75V2.25H2.75V6.75H5.75V6H8V7.5C8 7.925 7.8565 8.281 7.5695 8.568C7.2815 8.856 6.925 9 6.5 9H2ZM21.5 13.5V9.75C21.5 9.325 21.644 8.9685 21.932 8.6805C22.219 8.3935 22.575 8.25 23 8.25H26V6.75H21.5V4.5H26.75C27.175 4.5 27.531 4.6435 27.818 4.9305C28.106 5.2185 28.25 5.575 28.25 6V8.25C28.25 8.675 28.106 9.031 27.818 9.318C27.531 9.606 27.175 9.75 26.75 9.75H23.75V11.25H28.25V13.5H21.5Z" fill="#84E8F8"/>
</svg>
